<mxfile host="app.diagrams.net" agent="Mozilla/5.0 (Windows NT 10.0; Win64; x64) AppleWebKit/537.36 (KHTML, like Gecko) Chrome/134.0.0.0 Safari/537.36" version="26.1.0" pages="2">
  <diagram name="Structure acutelle" id="yN2Pk3c1aSmZ1z2fiEfe">
    <mxGraphModel dx="989" dy="587" grid="0" gridSize="10" guides="1" tooltips="1" connect="1" arrows="1" fold="1" page="1" pageScale="1" pageWidth="1654" pageHeight="1169" math="0" shadow="0">
      <root>
        <mxCell id="0" />
        <mxCell id="1" parent="0" />
        <mxCell id="zEUrIneddjxInYduVbAT-22" value="&lt;h3&gt;UNISTA cellule&lt;/h3&gt;" style="rounded=1;whiteSpace=wrap;html=1;fillColor=#fad9d5;strokeColor=#ae4132;horizontal=0;verticalAlign=bottom;" vertex="1" parent="1">
          <mxGeometry x="520" y="380" width="340" height="120" as="geometry" />
        </mxCell>
        <mxCell id="zEUrIneddjxInYduVbAT-1" value="SCADA" style="rounded=1;whiteSpace=wrap;html=1;" vertex="1" parent="1">
          <mxGeometry x="560" y="220" width="240" height="40" as="geometry" />
        </mxCell>
        <mxCell id="zEUrIneddjxInYduVbAT-24" value="" style="edgeStyle=orthogonalEdgeStyle;rounded=0;orthogonalLoop=1;jettySize=auto;html=1;" edge="1" parent="1" source="zEUrIneddjxInYduVbAT-2" target="zEUrIneddjxInYduVbAT-17">
          <mxGeometry relative="1" as="geometry" />
        </mxCell>
        <mxCell id="zEUrIneddjxInYduVbAT-2" value="Gateway Agileo&lt;div&gt;client&lt;/div&gt;" style="rounded=1;whiteSpace=wrap;html=1;" vertex="1" parent="1">
          <mxGeometry x="560" y="290" width="240" height="40" as="geometry" />
        </mxCell>
        <mxCell id="zEUrIneddjxInYduVbAT-3" value="Cellule UNISTA server" style="rounded=1;whiteSpace=wrap;html=1;" vertex="1" parent="1">
          <mxGeometry x="560" y="400" width="240" height="40" as="geometry" />
        </mxCell>
        <mxCell id="zEUrIneddjxInYduVbAT-5" value="" style="endArrow=classic;startArrow=classic;html=1;rounded=0;entryX=0.5;entryY=1;entryDx=0;entryDy=0;exitX=0.5;exitY=0;exitDx=0;exitDy=0;" edge="1" parent="1" source="zEUrIneddjxInYduVbAT-2" target="zEUrIneddjxInYduVbAT-1">
          <mxGeometry width="50" height="50" relative="1" as="geometry">
            <mxPoint x="530" y="280" as="sourcePoint" />
            <mxPoint x="580" y="230" as="targetPoint" />
          </mxGeometry>
        </mxCell>
        <mxCell id="zEUrIneddjxInYduVbAT-6" value="" style="endArrow=classic;startArrow=classic;html=1;rounded=0;entryX=0.25;entryY=1;entryDx=0;entryDy=0;exitX=0.25;exitY=0;exitDx=0;exitDy=0;" edge="1" parent="1" source="zEUrIneddjxInYduVbAT-3" target="zEUrIneddjxInYduVbAT-2">
          <mxGeometry width="50" height="50" relative="1" as="geometry">
            <mxPoint x="480" y="360" as="sourcePoint" />
            <mxPoint x="530" y="310" as="targetPoint" />
          </mxGeometry>
        </mxCell>
        <mxCell id="zEUrIneddjxInYduVbAT-7" value="Method" style="edgeLabel;html=1;align=center;verticalAlign=middle;resizable=0;points=[];rotation=0;" vertex="1" connectable="0" parent="zEUrIneddjxInYduVbAT-6">
          <mxGeometry x="-0.2667" relative="1" as="geometry">
            <mxPoint y="-6" as="offset" />
          </mxGeometry>
        </mxCell>
        <mxCell id="zEUrIneddjxInYduVbAT-8" value="" style="endArrow=classic;startArrow=none;html=1;rounded=0;exitX=0.5;exitY=0;exitDx=0;exitDy=0;startFill=0;endFill=1;entryX=0.5;entryY=1;entryDx=0;entryDy=0;" edge="1" parent="1" source="zEUrIneddjxInYduVbAT-3" target="zEUrIneddjxInYduVbAT-2">
          <mxGeometry width="50" height="50" relative="1" as="geometry">
            <mxPoint x="670" y="430" as="sourcePoint" />
            <mxPoint x="680" y="280" as="targetPoint" />
          </mxGeometry>
        </mxCell>
        <mxCell id="zEUrIneddjxInYduVbAT-9" value="Event" style="edgeLabel;html=1;align=center;verticalAlign=middle;resizable=0;points=[];" vertex="1" connectable="0" parent="zEUrIneddjxInYduVbAT-8">
          <mxGeometry x="-0.2667" relative="1" as="geometry">
            <mxPoint y="-6" as="offset" />
          </mxGeometry>
        </mxCell>
        <mxCell id="zEUrIneddjxInYduVbAT-12" value="Commande numérique Ltu&lt;div&gt;server&lt;/div&gt;" style="rounded=1;whiteSpace=wrap;html=1;" vertex="1" parent="1">
          <mxGeometry x="560" y="540" width="240" height="40" as="geometry" />
        </mxCell>
        <mxCell id="zEUrIneddjxInYduVbAT-17" value="Cellule UNISTA&amp;nbsp;&lt;div&gt;client&lt;/div&gt;" style="rounded=1;whiteSpace=wrap;html=1;" vertex="1" parent="1">
          <mxGeometry x="560" y="440" width="240" height="40" as="geometry" />
        </mxCell>
        <mxCell id="zEUrIneddjxInYduVbAT-18" value="" style="endArrow=classic;startArrow=classic;html=1;rounded=0;entryX=0.25;entryY=1;entryDx=0;entryDy=0;exitX=0.25;exitY=0;exitDx=0;exitDy=0;" edge="1" parent="1" source="zEUrIneddjxInYduVbAT-12" target="zEUrIneddjxInYduVbAT-17">
          <mxGeometry width="50" height="50" relative="1" as="geometry">
            <mxPoint x="520" y="660" as="sourcePoint" />
            <mxPoint x="520" y="540" as="targetPoint" />
          </mxGeometry>
        </mxCell>
        <mxCell id="zEUrIneddjxInYduVbAT-19" value="Method" style="edgeLabel;html=1;align=center;verticalAlign=middle;resizable=0;points=[];rotation=0;" vertex="1" connectable="0" parent="zEUrIneddjxInYduVbAT-18">
          <mxGeometry x="-0.2667" relative="1" as="geometry">
            <mxPoint y="-6" as="offset" />
          </mxGeometry>
        </mxCell>
        <mxCell id="zEUrIneddjxInYduVbAT-20" value="" style="endArrow=none;startArrow=classic;html=1;rounded=0;entryX=0.5;entryY=1;entryDx=0;entryDy=0;startFill=1;" edge="1" parent="1" source="zEUrIneddjxInYduVbAT-12" target="zEUrIneddjxInYduVbAT-17">
          <mxGeometry width="50" height="50" relative="1" as="geometry">
            <mxPoint x="650" y="625" as="sourcePoint" />
            <mxPoint x="650" y="545" as="targetPoint" />
          </mxGeometry>
        </mxCell>
        <mxCell id="zEUrIneddjxInYduVbAT-21" value="Monitoring" style="edgeLabel;html=1;align=center;verticalAlign=middle;resizable=0;points=[];rotation=0;" vertex="1" connectable="0" parent="zEUrIneddjxInYduVbAT-20">
          <mxGeometry x="-0.2667" relative="1" as="geometry">
            <mxPoint y="-6" as="offset" />
          </mxGeometry>
        </mxCell>
        <mxCell id="Dny7MRwqZoZSw2ut7_8K-1" value="" style="curved=1;endArrow=classic;html=1;rounded=0;entryX=0;entryY=0.5;entryDx=0;entryDy=0;exitX=0;exitY=0.5;exitDx=0;exitDy=0;startArrow=classic;startFill=1;" edge="1" parent="1" source="zEUrIneddjxInYduVbAT-2" target="zEUrIneddjxInYduVbAT-12">
          <mxGeometry width="50" height="50" relative="1" as="geometry">
            <mxPoint x="420" y="430" as="sourcePoint" />
            <mxPoint x="470" y="380" as="targetPoint" />
            <Array as="points">
              <mxPoint x="470" y="320" />
              <mxPoint x="410" y="340" />
              <mxPoint x="410" y="410" />
              <mxPoint x="410" y="470" />
            </Array>
          </mxGeometry>
        </mxCell>
      </root>
    </mxGraphModel>
  </diagram>
  <diagram id="tGmVEPJkoe86vWOIsXWK" name="Echange OPCUA">
    <mxGraphModel dx="2049" dy="1216" grid="1" gridSize="10" guides="1" tooltips="1" connect="1" arrows="1" fold="1" page="1" pageScale="1" pageWidth="1654" pageHeight="1169" math="0" shadow="0">
      <root>
        <mxCell id="0" />
        <mxCell id="1" parent="0" />
        <mxCell id="q9Mdm4glvavYm5Pm2fRk-71" value="LTU disponibilitées" style="rounded=1;whiteSpace=wrap;html=1;verticalAlign=top;" vertex="1" parent="1">
          <mxGeometry x="1370" y="230" width="550" height="430" as="geometry" />
        </mxCell>
        <mxCell id="q9Mdm4glvavYm5Pm2fRk-11" value="Vidage blanks" style="rounded=1;whiteSpace=wrap;html=1;verticalAlign=top;" vertex="1" parent="1">
          <mxGeometry x="20" y="235" width="320" height="350" as="geometry" />
        </mxCell>
        <mxCell id="q9Mdm4glvavYm5Pm2fRk-9" style="edgeStyle=orthogonalEdgeStyle;rounded=0;orthogonalLoop=1;jettySize=auto;html=1;exitX=0.5;exitY=1;exitDx=0;exitDy=0;" edge="1" parent="1" source="q9Mdm4glvavYm5Pm2fRk-1" target="q9Mdm4glvavYm5Pm2fRk-8">
          <mxGeometry relative="1" as="geometry" />
        </mxCell>
        <mxCell id="q9Mdm4glvavYm5Pm2fRk-1" value="EmptyContainer" style="rounded=1;whiteSpace=wrap;html=1;fillColor=#f8cecc;strokeColor=#b85450;" vertex="1" parent="1">
          <mxGeometry x="120" y="290" width="120" height="60" as="geometry" />
        </mxCell>
        <mxCell id="q9Mdm4glvavYm5Pm2fRk-2" value="ClearanceDone :=1" style="rounded=1;whiteSpace=wrap;html=1;fillColor=#e1d5e7;strokeColor=#9673a6;" vertex="1" parent="1">
          <mxGeometry x="120" y="460" width="120" height="60" as="geometry" />
        </mxCell>
        <mxCell id="q9Mdm4glvavYm5Pm2fRk-4" value="Method UNISTA" style="rounded=1;whiteSpace=wrap;html=1;fillColor=#f8cecc;strokeColor=#b85450;" vertex="1" parent="1">
          <mxGeometry x="260" y="110" width="120" height="60" as="geometry" />
        </mxCell>
        <mxCell id="q9Mdm4glvavYm5Pm2fRk-5" value="Status UNISTA" style="rounded=1;whiteSpace=wrap;html=1;fillColor=#e1d5e7;strokeColor=#9673a6;" vertex="1" parent="1">
          <mxGeometry x="550" y="110" width="120" height="60" as="geometry" />
        </mxCell>
        <mxCell id="q9Mdm4glvavYm5Pm2fRk-7" value="Process UNISTA" style="rounded=1;whiteSpace=wrap;html=1;fillColor=#d5e8d4;strokeColor=#82b366;" vertex="1" parent="1">
          <mxGeometry x="410" y="110" width="120" height="60" as="geometry" />
        </mxCell>
        <mxCell id="q9Mdm4glvavYm5Pm2fRk-10" style="edgeStyle=orthogonalEdgeStyle;rounded=0;orthogonalLoop=1;jettySize=auto;html=1;exitX=0.5;exitY=1;exitDx=0;exitDy=0;" edge="1" parent="1" source="q9Mdm4glvavYm5Pm2fRk-8" target="q9Mdm4glvavYm5Pm2fRk-2">
          <mxGeometry relative="1" as="geometry" />
        </mxCell>
        <mxCell id="q9Mdm4glvavYm5Pm2fRk-8" value="Vidange des blanks" style="rounded=1;whiteSpace=wrap;html=1;fillColor=#d5e8d4;strokeColor=#82b366;" vertex="1" parent="1">
          <mxGeometry x="120" y="380" width="120" height="60" as="geometry" />
        </mxCell>
        <mxCell id="q9Mdm4glvavYm5Pm2fRk-12" value="Chargement matiere" style="rounded=1;whiteSpace=wrap;html=1;verticalAlign=top;" vertex="1" parent="1">
          <mxGeometry x="390" y="230" width="450" height="350" as="geometry" />
        </mxCell>
        <mxCell id="q9Mdm4glvavYm5Pm2fRk-13" style="edgeStyle=orthogonalEdgeStyle;rounded=0;orthogonalLoop=1;jettySize=auto;html=1;exitX=0.5;exitY=1;exitDx=0;exitDy=0;" edge="1" parent="1" source="q9Mdm4glvavYm5Pm2fRk-14" target="q9Mdm4glvavYm5Pm2fRk-17">
          <mxGeometry relative="1" as="geometry" />
        </mxCell>
        <mxCell id="q9Mdm4glvavYm5Pm2fRk-14" value="StartRefilling" style="rounded=1;whiteSpace=wrap;html=1;fillColor=#f8cecc;strokeColor=#b85450;" vertex="1" parent="1">
          <mxGeometry x="490" y="285" width="120" height="60" as="geometry" />
        </mxCell>
        <mxCell id="q9Mdm4glvavYm5Pm2fRk-15" value="xxxContainerOpened := 1" style="rounded=1;whiteSpace=wrap;html=1;fillColor=#e1d5e7;strokeColor=#9673a6;" vertex="1" parent="1">
          <mxGeometry x="640" y="375" width="180" height="60" as="geometry" />
        </mxCell>
        <mxCell id="q9Mdm4glvavYm5Pm2fRk-18" style="edgeStyle=orthogonalEdgeStyle;rounded=0;orthogonalLoop=1;jettySize=auto;html=1;exitX=1;exitY=0.5;exitDx=0;exitDy=0;" edge="1" parent="1" source="q9Mdm4glvavYm5Pm2fRk-17" target="q9Mdm4glvavYm5Pm2fRk-15">
          <mxGeometry relative="1" as="geometry" />
        </mxCell>
        <mxCell id="q9Mdm4glvavYm5Pm2fRk-21" style="edgeStyle=orthogonalEdgeStyle;rounded=0;orthogonalLoop=1;jettySize=auto;html=1;exitX=0.5;exitY=1;exitDx=0;exitDy=0;" edge="1" parent="1" source="q9Mdm4glvavYm5Pm2fRk-17" target="q9Mdm4glvavYm5Pm2fRk-20">
          <mxGeometry relative="1" as="geometry" />
        </mxCell>
        <mxCell id="q9Mdm4glvavYm5Pm2fRk-17" value="Ouverture trappe xxx" style="rounded=1;whiteSpace=wrap;html=1;fillColor=#d5e8d4;strokeColor=#82b366;" vertex="1" parent="1">
          <mxGeometry x="490" y="375" width="120" height="60" as="geometry" />
        </mxCell>
        <mxCell id="q9Mdm4glvavYm5Pm2fRk-19" value="xxxBlanksContainerOpened := 0" style="rounded=1;whiteSpace=wrap;html=1;fillColor=#e1d5e7;strokeColor=#9673a6;" vertex="1" parent="1">
          <mxGeometry x="640" y="460" width="180" height="60" as="geometry" />
        </mxCell>
        <mxCell id="q9Mdm4glvavYm5Pm2fRk-22" style="edgeStyle=orthogonalEdgeStyle;rounded=0;orthogonalLoop=1;jettySize=auto;html=1;exitX=1;exitY=0.5;exitDx=0;exitDy=0;entryX=0;entryY=0.5;entryDx=0;entryDy=0;" edge="1" parent="1" source="q9Mdm4glvavYm5Pm2fRk-20" target="q9Mdm4glvavYm5Pm2fRk-19">
          <mxGeometry relative="1" as="geometry" />
        </mxCell>
        <mxCell id="q9Mdm4glvavYm5Pm2fRk-20" value="Fermeture trappe xxx" style="rounded=1;whiteSpace=wrap;html=1;fillColor=#d5e8d4;strokeColor=#82b366;" vertex="1" parent="1">
          <mxGeometry x="490" y="460" width="120" height="60" as="geometry" />
        </mxCell>
        <mxCell id="q9Mdm4glvavYm5Pm2fRk-23" value="Ouverture trappe WorkOrder fini" style="rounded=1;whiteSpace=wrap;html=1;verticalAlign=top;" vertex="1" parent="1">
          <mxGeometry x="880" y="230" width="450" height="350" as="geometry" />
        </mxCell>
        <mxCell id="q9Mdm4glvavYm5Pm2fRk-24" style="edgeStyle=orthogonalEdgeStyle;rounded=0;orthogonalLoop=1;jettySize=auto;html=1;exitX=0.5;exitY=1;exitDx=0;exitDy=0;" edge="1" parent="1" source="q9Mdm4glvavYm5Pm2fRk-25" target="q9Mdm4glvavYm5Pm2fRk-29">
          <mxGeometry relative="1" as="geometry" />
        </mxCell>
        <mxCell id="q9Mdm4glvavYm5Pm2fRk-25" value="ReleaseDepot" style="rounded=1;whiteSpace=wrap;html=1;fillColor=#f8cecc;strokeColor=#b85450;" vertex="1" parent="1">
          <mxGeometry x="980" y="285" width="120" height="60" as="geometry" />
        </mxCell>
        <mxCell id="q9Mdm4glvavYm5Pm2fRk-26" value="Hatch A ou B Opened := 1" style="rounded=1;whiteSpace=wrap;html=1;fillColor=#e1d5e7;strokeColor=#9673a6;" vertex="1" parent="1">
          <mxGeometry x="1130" y="375" width="180" height="60" as="geometry" />
        </mxCell>
        <mxCell id="q9Mdm4glvavYm5Pm2fRk-27" style="edgeStyle=orthogonalEdgeStyle;rounded=0;orthogonalLoop=1;jettySize=auto;html=1;exitX=1;exitY=0.5;exitDx=0;exitDy=0;" edge="1" parent="1" source="q9Mdm4glvavYm5Pm2fRk-29" target="q9Mdm4glvavYm5Pm2fRk-26">
          <mxGeometry relative="1" as="geometry" />
        </mxCell>
        <mxCell id="q9Mdm4glvavYm5Pm2fRk-28" style="edgeStyle=orthogonalEdgeStyle;rounded=0;orthogonalLoop=1;jettySize=auto;html=1;exitX=0.5;exitY=1;exitDx=0;exitDy=0;" edge="1" parent="1" source="q9Mdm4glvavYm5Pm2fRk-29" target="q9Mdm4glvavYm5Pm2fRk-32">
          <mxGeometry relative="1" as="geometry" />
        </mxCell>
        <mxCell id="q9Mdm4glvavYm5Pm2fRk-29" value="Ouverture trappe ou est fini le WO A ou B" style="rounded=1;whiteSpace=wrap;html=1;fillColor=#d5e8d4;strokeColor=#82b366;" vertex="1" parent="1">
          <mxGeometry x="980" y="375" width="120" height="60" as="geometry" />
        </mxCell>
        <mxCell id="q9Mdm4glvavYm5Pm2fRk-30" value="Hatch A ou B Opened := 0" style="rounded=1;whiteSpace=wrap;html=1;fillColor=#e1d5e7;strokeColor=#9673a6;" vertex="1" parent="1">
          <mxGeometry x="1130" y="460" width="180" height="60" as="geometry" />
        </mxCell>
        <mxCell id="q9Mdm4glvavYm5Pm2fRk-31" style="edgeStyle=orthogonalEdgeStyle;rounded=0;orthogonalLoop=1;jettySize=auto;html=1;exitX=1;exitY=0.5;exitDx=0;exitDy=0;entryX=0;entryY=0.5;entryDx=0;entryDy=0;" edge="1" parent="1" source="q9Mdm4glvavYm5Pm2fRk-32" target="q9Mdm4glvavYm5Pm2fRk-30">
          <mxGeometry relative="1" as="geometry" />
        </mxCell>
        <mxCell id="q9Mdm4glvavYm5Pm2fRk-32" value="Fermeture trappe ou est fini le WO A ou B" style="rounded=1;whiteSpace=wrap;html=1;fillColor=#d5e8d4;strokeColor=#82b366;" vertex="1" parent="1">
          <mxGeometry x="980" y="460" width="120" height="60" as="geometry" />
        </mxCell>
        <mxCell id="q9Mdm4glvavYm5Pm2fRk-33" value="&lt;div&gt;&lt;b&gt;Status&lt;/b&gt;&lt;/div&gt;&lt;ul&gt;&lt;li&gt;RequestNewWorkOrder dès qu&#39;il y a de la place pour un nouveau WO&lt;/li&gt;&lt;li&gt;StandstillReason pour savoir pourquoi la machine est en Held ou Aborted&lt;/li&gt;&lt;/ul&gt;" style="rounded=1;whiteSpace=wrap;html=1;fillColor=#e1d5e7;strokeColor=#9673a6;verticalAlign=top;" vertex="1" parent="1">
          <mxGeometry x="40" y="650" width="480" height="100" as="geometry" />
        </mxCell>
        <mxCell id="q9Mdm4glvavYm5Pm2fRk-36" value="&lt;b&gt;SetOrderParameter&lt;/b&gt;&lt;div&gt;&lt;b&gt;&lt;br&gt;&lt;/b&gt;&lt;div&gt;&lt;ul&gt;&lt;li&gt;MachiningProgramNameLathing1 = Programme pour Face1&lt;/li&gt;&lt;li&gt;&lt;span style=&quot;background-color: transparent; color: light-dark(rgb(0, 0, 0), rgb(255, 255, 255));&quot;&gt;MachiningProgramNameLathing2 =&amp;nbsp;&lt;/span&gt;&lt;span style=&quot;background-color: transparent; color: light-dark(rgb(0, 0, 0), rgb(255, 255, 255));&quot;&gt;Programme&lt;/span&gt;&lt;span style=&quot;background-color: transparent; color: light-dark(rgb(0, 0, 0), rgb(255, 255, 255));&quot;&gt;&amp;nbsp;pour&lt;/span&gt;&lt;span style=&quot;background-color: transparent; color: light-dark(rgb(0, 0, 0), rgb(255, 255, 255));&quot;&gt;&amp;nbsp;Face2&lt;/span&gt;&lt;/li&gt;&lt;li&gt;Bien renvoyer de quelle coté&amp;nbsp; va être effectuer le WO&lt;/li&gt;&lt;/ul&gt;&lt;/div&gt;&lt;/div&gt;" style="rounded=1;whiteSpace=wrap;html=1;fillColor=#f8cecc;strokeColor=#b85450;fontStyle=0;verticalAlign=top;" vertex="1" parent="1">
          <mxGeometry x="30" y="920" width="490" height="130" as="geometry" />
        </mxCell>
        <mxCell id="q9Mdm4glvavYm5Pm2fRk-37" value="&lt;div&gt;&lt;b&gt;Status container&lt;/b&gt;&lt;/div&gt;&lt;ul&gt;&lt;li&gt;Chuck1Container = Nbre chuck1 sur carrousel&lt;/li&gt;&lt;li&gt;Chuck2Container = Nbre chuck2 sur carrousel&lt;/li&gt;&lt;li&gt;FillingLevelWax =&amp;nbsp;&lt;span style=&quot;background-color: transparent; color: light-dark(rgb(0, 0, 0), rgb(255, 255, 255));&quot;&gt;Quantité&lt;/span&gt;&lt;span style=&quot;background-color: transparent; color: light-dark(rgb(0, 0, 0), rgb(255, 255, 255));&quot;&gt;&amp;nbsp;&lt;/span&gt;&lt;span style=&quot;background-color: transparent; color: light-dark(rgb(0, 0, 0), rgb(255, 255, 255));&quot;&gt;&amp;nbsp;en pourcentage&lt;/span&gt;&lt;/li&gt;&lt;li&gt;Autre FillingLevel= Quantité en nombre&lt;/li&gt;&lt;/ul&gt;" style="rounded=1;whiteSpace=wrap;html=1;fillColor=#e1d5e7;strokeColor=#9673a6;verticalAlign=top;" vertex="1" parent="1">
          <mxGeometry x="40" y="780" width="480" height="110" as="geometry" />
        </mxCell>
        <mxCell id="q9Mdm4glvavYm5Pm2fRk-38" value="Avant de lancer une LTU chargement programme" style="rounded=1;whiteSpace=wrap;html=1;verticalAlign=top;" vertex="1" parent="1">
          <mxGeometry x="670" y="630" width="650" height="680" as="geometry" />
        </mxCell>
        <mxCell id="q9Mdm4glvavYm5Pm2fRk-39" style="edgeStyle=orthogonalEdgeStyle;rounded=0;orthogonalLoop=1;jettySize=auto;html=1;exitX=0.5;exitY=1;exitDx=0;exitDy=0;entryX=0.5;entryY=0;entryDx=0;entryDy=0;" edge="1" parent="1" source="q9Mdm4glvavYm5Pm2fRk-40" target="q9Mdm4glvavYm5Pm2fRk-50">
          <mxGeometry relative="1" as="geometry">
            <mxPoint x="860" y="1080" as="targetPoint" />
          </mxGeometry>
        </mxCell>
        <mxCell id="q9Mdm4glvavYm5Pm2fRk-40" value="ConfirmMachineProgram" style="rounded=1;whiteSpace=wrap;html=1;fillColor=#f8cecc;strokeColor=#b85450;" vertex="1" parent="1">
          <mxGeometry x="765" y="990" width="210" height="60" as="geometry" />
        </mxCell>
        <mxCell id="q9Mdm4glvavYm5Pm2fRk-49" style="edgeStyle=orthogonalEdgeStyle;rounded=0;orthogonalLoop=1;jettySize=auto;html=1;exitX=0.5;exitY=1;exitDx=0;exitDy=0;entryX=0.5;entryY=0;entryDx=0;entryDy=0;" edge="1" parent="1" source="q9Mdm4glvavYm5Pm2fRk-48" target="q9Mdm4glvavYm5Pm2fRk-40">
          <mxGeometry relative="1" as="geometry" />
        </mxCell>
        <mxCell id="q9Mdm4glvavYm5Pm2fRk-52" style="edgeStyle=orthogonalEdgeStyle;rounded=0;orthogonalLoop=1;jettySize=auto;html=1;exitX=0.75;exitY=1;exitDx=0;exitDy=0;entryX=0.5;entryY=0;entryDx=0;entryDy=0;" edge="1" parent="1" source="q9Mdm4glvavYm5Pm2fRk-48" target="q9Mdm4glvavYm5Pm2fRk-51">
          <mxGeometry relative="1" as="geometry" />
        </mxCell>
        <mxCell id="q9Mdm4glvavYm5Pm2fRk-48" value="RequestProgramCheck = 1" style="rounded=1;whiteSpace=wrap;html=1;fillColor=#e1d5e7;strokeColor=#9673a6;" vertex="1" parent="1">
          <mxGeometry x="765" y="890" width="210" height="60" as="geometry" />
        </mxCell>
        <mxCell id="q9Mdm4glvavYm5Pm2fRk-50" value="RequestProgramCheck = 0&lt;div&gt;(déjà fais dans interface OPCUA)&lt;/div&gt;" style="rounded=1;whiteSpace=wrap;html=1;fillColor=#e1d5e7;strokeColor=#9673a6;" vertex="1" parent="1">
          <mxGeometry x="765" y="1090" width="210" height="60" as="geometry" />
        </mxCell>
        <mxCell id="q9Mdm4glvavYm5Pm2fRk-68" style="edgeStyle=orthogonalEdgeStyle;rounded=0;orthogonalLoop=1;jettySize=auto;html=1;exitX=0.5;exitY=1;exitDx=0;exitDy=0;" edge="1" parent="1" source="q9Mdm4glvavYm5Pm2fRk-51" target="q9Mdm4glvavYm5Pm2fRk-67">
          <mxGeometry relative="1" as="geometry" />
        </mxCell>
        <mxCell id="q9Mdm4glvavYm5Pm2fRk-51" value="ReloadMachineProgram" style="rounded=1;whiteSpace=wrap;html=1;fillColor=#f8cecc;strokeColor=#b85450;" vertex="1" parent="1">
          <mxGeometry x="1020" y="990" width="210" height="60" as="geometry" />
        </mxCell>
        <mxCell id="q9Mdm4glvavYm5Pm2fRk-65" style="edgeStyle=orthogonalEdgeStyle;rounded=0;orthogonalLoop=1;jettySize=auto;html=1;exitX=0.5;exitY=1;exitDx=0;exitDy=0;entryX=0.5;entryY=0;entryDx=0;entryDy=0;" edge="1" parent="1" source="q9Mdm4glvavYm5Pm2fRk-57" target="q9Mdm4glvavYm5Pm2fRk-59">
          <mxGeometry relative="1" as="geometry" />
        </mxCell>
        <mxCell id="q9Mdm4glvavYm5Pm2fRk-57" value="SetProgramID" style="rounded=1;whiteSpace=wrap;html=1;fillColor=#fff2cc;strokeColor=#d6b656;" vertex="1" parent="1">
          <mxGeometry x="775" y="725" width="190" height="55" as="geometry" />
        </mxCell>
        <mxCell id="q9Mdm4glvavYm5Pm2fRk-63" style="edgeStyle=orthogonalEdgeStyle;rounded=0;orthogonalLoop=1;jettySize=auto;html=1;exitX=0.5;exitY=1;exitDx=0;exitDy=0;entryX=0.5;entryY=0;entryDx=0;entryDy=0;" edge="1" parent="1" source="q9Mdm4glvavYm5Pm2fRk-59" target="q9Mdm4glvavYm5Pm2fRk-48">
          <mxGeometry relative="1" as="geometry" />
        </mxCell>
        <mxCell id="q9Mdm4glvavYm5Pm2fRk-59" value="ProgramIDToUse" style="rounded=1;whiteSpace=wrap;html=1;fillColor=#dae8fc;strokeColor=#6c8ebf;" vertex="1" parent="1">
          <mxGeometry x="770" y="810" width="200" height="60" as="geometry" />
        </mxCell>
        <mxCell id="q9Mdm4glvavYm5Pm2fRk-60" value="Status LTU" style="rounded=1;whiteSpace=wrap;html=1;fillColor=#dae8fc;strokeColor=#6c8ebf;" vertex="1" parent="1">
          <mxGeometry x="920" y="110" width="120" height="60" as="geometry" />
        </mxCell>
        <mxCell id="q9Mdm4glvavYm5Pm2fRk-61" value="Method LTU" style="rounded=1;whiteSpace=wrap;html=1;fillColor=#fff2cc;strokeColor=#d6b656;" vertex="1" parent="1">
          <mxGeometry x="780" y="110" width="120" height="60" as="geometry" />
        </mxCell>
        <mxCell id="q9Mdm4glvavYm5Pm2fRk-69" style="edgeStyle=orthogonalEdgeStyle;rounded=0;orthogonalLoop=1;jettySize=auto;html=1;exitX=0.5;exitY=1;exitDx=0;exitDy=0;entryX=0.5;entryY=0;entryDx=0;entryDy=0;" edge="1" parent="1" source="q9Mdm4glvavYm5Pm2fRk-67" target="q9Mdm4glvavYm5Pm2fRk-57">
          <mxGeometry relative="1" as="geometry">
            <Array as="points">
              <mxPoint x="1125" y="1170" />
              <mxPoint x="1280" y="1170" />
              <mxPoint x="1280" y="705" />
              <mxPoint x="870" y="705" />
            </Array>
          </mxGeometry>
        </mxCell>
        <mxCell id="q9Mdm4glvavYm5Pm2fRk-67" value="RequestProgramCheck = 0&lt;div&gt;(déjà fais dans interface OPCUA)&lt;/div&gt;" style="rounded=1;whiteSpace=wrap;html=1;fillColor=#e1d5e7;strokeColor=#9673a6;" vertex="1" parent="1">
          <mxGeometry x="1020" y="1090" width="210" height="60" as="geometry" />
        </mxCell>
        <mxCell id="q9Mdm4glvavYm5Pm2fRk-80" style="edgeStyle=orthogonalEdgeStyle;rounded=0;orthogonalLoop=1;jettySize=auto;html=1;exitX=0.5;exitY=1;exitDx=0;exitDy=0;entryX=0.5;entryY=0;entryDx=0;entryDy=0;" edge="1" parent="1" source="q9Mdm4glvavYm5Pm2fRk-70" target="q9Mdm4glvavYm5Pm2fRk-76">
          <mxGeometry relative="1" as="geometry" />
        </mxCell>
        <mxCell id="q9Mdm4glvavYm5Pm2fRk-70" value="StartMachineTest" style="rounded=1;whiteSpace=wrap;html=1;fillColor=#f8cecc;strokeColor=#b85450;" vertex="1" parent="1">
          <mxGeometry x="1407.5" y="270" width="200" height="60" as="geometry" />
        </mxCell>
        <mxCell id="q9Mdm4glvavYm5Pm2fRk-83" style="edgeStyle=orthogonalEdgeStyle;rounded=0;orthogonalLoop=1;jettySize=auto;html=1;exitX=0.5;exitY=1;exitDx=0;exitDy=0;entryX=0.5;entryY=0;entryDx=0;entryDy=0;" edge="1" parent="1" source="q9Mdm4glvavYm5Pm2fRk-72" target="q9Mdm4glvavYm5Pm2fRk-79">
          <mxGeometry relative="1" as="geometry" />
        </mxCell>
        <mxCell id="q9Mdm4glvavYm5Pm2fRk-72" value="ResetRunningMode" style="rounded=1;whiteSpace=wrap;html=1;fillColor=#f8cecc;strokeColor=#b85450;" vertex="1" parent="1">
          <mxGeometry x="1685" y="470" width="200" height="60" as="geometry" />
        </mxCell>
        <mxCell id="q9Mdm4glvavYm5Pm2fRk-81" style="edgeStyle=orthogonalEdgeStyle;rounded=0;orthogonalLoop=1;jettySize=auto;html=1;exitX=0.5;exitY=1;exitDx=0;exitDy=0;entryX=0.5;entryY=0;entryDx=0;entryDy=0;" edge="1" parent="1" source="q9Mdm4glvavYm5Pm2fRk-73" target="q9Mdm4glvavYm5Pm2fRk-77">
          <mxGeometry relative="1" as="geometry" />
        </mxCell>
        <mxCell id="q9Mdm4glvavYm5Pm2fRk-73" value="StopMachineTest" style="rounded=1;whiteSpace=wrap;html=1;fillColor=#f8cecc;strokeColor=#b85450;" vertex="1" parent="1">
          <mxGeometry x="1407.5" y="470" width="200" height="60" as="geometry" />
        </mxCell>
        <mxCell id="q9Mdm4glvavYm5Pm2fRk-82" style="edgeStyle=orthogonalEdgeStyle;rounded=0;orthogonalLoop=1;jettySize=auto;html=1;exitX=0.5;exitY=1;exitDx=0;exitDy=0;entryX=0.5;entryY=0;entryDx=0;entryDy=0;" edge="1" parent="1" source="q9Mdm4glvavYm5Pm2fRk-74" target="q9Mdm4glvavYm5Pm2fRk-78">
          <mxGeometry relative="1" as="geometry" />
        </mxCell>
        <mxCell id="q9Mdm4glvavYm5Pm2fRk-74" value="SetRunningMode" style="rounded=1;whiteSpace=wrap;html=1;fillColor=#f8cecc;strokeColor=#b85450;" vertex="1" parent="1">
          <mxGeometry x="1682.5" y="270" width="200" height="60" as="geometry" />
        </mxCell>
        <mxCell id="q9Mdm4glvavYm5Pm2fRk-76" value="La LTU est pas disponible" style="rounded=1;whiteSpace=wrap;html=1;fillColor=#d5e8d4;strokeColor=#82b366;" vertex="1" parent="1">
          <mxGeometry x="1410" y="350" width="195" height="60" as="geometry" />
        </mxCell>
        <mxCell id="q9Mdm4glvavYm5Pm2fRk-77" value="La LTU&amp;nbsp; est disponible" style="rounded=1;whiteSpace=wrap;html=1;fillColor=#d5e8d4;strokeColor=#82b366;" vertex="1" parent="1">
          <mxGeometry x="1410" y="550" width="195" height="60" as="geometry" />
        </mxCell>
        <mxCell id="q9Mdm4glvavYm5Pm2fRk-78" value="La LTU est pas disponible" style="rounded=1;whiteSpace=wrap;html=1;fillColor=#d5e8d4;strokeColor=#82b366;" vertex="1" parent="1">
          <mxGeometry x="1682.5" y="350" width="195" height="60" as="geometry" />
        </mxCell>
        <mxCell id="q9Mdm4glvavYm5Pm2fRk-79" value="La LTU est disponible" style="rounded=1;whiteSpace=wrap;html=1;fillColor=#d5e8d4;strokeColor=#82b366;" vertex="1" parent="1">
          <mxGeometry x="1687.5" y="550" width="195" height="60" as="geometry" />
        </mxCell>
      </root>
    </mxGraphModel>
  </diagram>
</mxfile>
